<svg width="24" height="24" viewBox="0 0 24 24" fill="none" xmlns="http://www.w3.org/2000/svg">
<rect x="1.5" y="1.5" width="21" height="21" rx="4.5" stroke="white"/>
<rect x="13.6152" y="10" width="3.23079" height="3.23079" rx="1.00511" transform="rotate(90 13.6152 10)" fill="white"/>
<rect x="13.6152" y="5" width="3.23079" height="3.23079" rx="1.00511" transform="rotate(90 13.6152 5)" fill="white"/>
<rect x="13.6152" y="15.3848" width="3.23079" height="3.23079" rx="1.00511" transform="rotate(90 13.6152 15.3848)" fill="white"/>
<rect x="19" y="10" width="3.23079" height="3.23079" rx="1.00511" transform="rotate(90 19 10)" fill="white"/>
<rect x="19" y="5" width="3.23079" height="3.23079" rx="1.00511" transform="rotate(90 19 5)" fill="white"/>
<rect x="19" y="15.3848" width="3.23079" height="3.23079" rx="1.00511" transform="rotate(90 19 15.3848)" fill="white"/>
<rect x="8.23096" y="10" width="3.23079" height="3.23079" rx="1.00511" transform="rotate(90 8.23096 10)" fill="white"/>
<rect x="8.23096" y="5" width="3.23079" height="3.23079" rx="1.00511" transform="rotate(90 8.23096 5)" fill="white"/>
<rect x="8.23096" y="15.3848" width="3.23079" height="3.23079" rx="1.00511" transform="rotate(90 8.23096 15.3848)" fill="white"/>
</svg>
