<svg width="24" height="24" viewBox="0 0 24 24" fill="none" xmlns="http://www.w3.org/2000/svg">
<rect x="1.5" y="1.5" width="21" height="21" rx="4.5" stroke="white"/>
<rect x="6" y="6" width="3" height="3" rx="0.746636" transform="rotate(90 6 6)" fill="white"/>
<rect x="11" y="6" width="3" height="3" rx="0.746636" transform="rotate(90 11 6)" fill="white"/>
<rect x="16" y="6" width="3" height="3" rx="0.746636" transform="rotate(90 16 6)" fill="white"/>
<rect x="21" y="6" width="3" height="3" rx="0.746636" transform="rotate(90 21 6)" fill="white"/>
<rect x="6" y="11" width="3" height="3" rx="0.746636" transform="rotate(90 6 11)" fill="white"/>
<rect x="11" y="11" width="3" height="3" rx="0.746636" transform="rotate(90 11 11)" fill="white"/>
<rect x="16" y="11" width="3" height="3" rx="0.746636" transform="rotate(90 16 11)" fill="white"/>
<rect x="21" y="11" width="3" height="3" rx="0.746636" transform="rotate(90 21 11)" fill="white"/>
<rect x="6" y="16" width="3" height="3" rx="0.746636" transform="rotate(90 6 16)" fill="white"/>
<rect x="11" y="16" width="3" height="3" rx="0.746636" transform="rotate(90 11 16)" fill="white"/>
<rect x="16" y="16" width="3" height="3" rx="0.746636" transform="rotate(90 16 16)" fill="white"/>
<rect x="21" y="16" width="3" height="3" rx="0.746636" transform="rotate(90 21 16)" fill="white"/>
</svg>
