<svg width="24" height="24" viewBox="0 0 24 24" fill="none" xmlns="http://www.w3.org/2000/svg">
<rect x="1.5" y="1.5" width="21" height="21" rx="4.5" stroke="white"/>
<path d="M11.0729 6.29236C11.41 5.45891 12.59 5.45891 12.9271 6.29235L13.8443 8.56045C13.9876 8.91467 14.3201 9.1563 14.7013 9.18308L17.1418 9.35455C18.0386 9.41757 18.4033 10.5398 17.7148 11.1179L15.8411 12.6912C15.5485 12.9369 15.4215 13.3278 15.5138 13.6986L16.1049 16.0727C16.3221 16.9451 15.3674 17.6386 14.6049 17.1625L12.5296 15.8667C12.2055 15.6643 11.7945 15.6643 11.4704 15.8667L9.39514 17.1625C8.63257 17.6386 7.67792 16.9451 7.89512 16.0727L8.48621 13.6986C8.57852 13.3278 8.45149 12.9369 8.15887 12.6912L6.28523 11.1179C5.59673 10.5398 5.96137 9.41757 6.85818 9.35455L9.29872 9.18308C9.67987 9.1563 10.0124 8.91467 10.1557 8.56045L11.0729 6.29236Z" stroke="white"/>
</svg>
