<?xml version="1.0" encoding="utf-8"?>
<!-- Generator: Adobe Illustrator 26.0.0, SVG Export Plug-In . SVG Version: 6.00 Build 0)  -->
<svg version="1.1" id="Слой_1" xmlns="http://www.w3.org/2000/svg" xmlns:xlink="http://www.w3.org/1999/xlink" x="0px" y="0px"
	 viewBox="0 0 27.1 27.3" style="enable-background:new 0 0 27.1 27.3;" xml:space="preserve">
<style type="text/css">
	.st0{fill:none;stroke:#FFFFFF;stroke-width:0.7087;stroke-linecap:round;stroke-linejoin:round;}
	.st1{fill:none;stroke:#FFFFFF;stroke-width:1.5;stroke-linecap:round;stroke-linejoin:round;}
</style>
<g>
	<path class="st0" d="M13.6,25.6c6.6,0,12-5.4,12-12s-5.4-12-12-12s-12,5.4-12,12S7,25.6,13.6,25.6z"/>
</g>
<line class="st0" x1="18.4" y1="18.4" x2="21.8" y2="22.3"/>
<g>
	<g>
		<path class="st1" d="M13.9,11.6c0,0,0.2-3.6-4.2-4.5v2.8"/>
		<path class="st1" d="M13.8,15.3c0,0,0.3-3.1-5-5.3v2.8"/>
		<path class="st1" d="M13.9,18.4c0,0-0.8-3.8-6.1-5.3l0,0c0,0-0.9,6.3,6,7.3"/>
		<line class="st1" x1="13.9" y1="11.6" x2="13.9" y2="22.5"/>
		<path class="st1" d="M13.9,3.1c0,0-2.4,1.8-1.8,5"/>
	</g>
	<g>
		<path class="st1" d="M13.9,11.6c0,0-0.2-3.6,4.2-4.5v2.8"/>
		<path class="st1" d="M14,15.3c0,0-0.3-3.1,5-5.3v2.8"/>
		<path class="st1" d="M13.9,18.4c0,0,0.8-3.8,6.1-5.3l0,0c0,0,0.9,6.3-6,7.3"/>
		<line class="st1" x1="13.9" y1="11.6" x2="13.9" y2="22.5"/>
		<path class="st1" d="M13.9,3.1c0,0,2.4,1.8,1.8,5"/>
	</g>
</g>
<line class="st0" x1="6.3" y1="4.5" x2="9.9" y2="8.6"/>
</svg>
