<?xml version="1.0" encoding="utf-8"?>
<!-- Generator: Adobe Illustrator 26.0.0, SVG Export Plug-In . SVG Version: 6.00 Build 0)  -->
<svg version="1.1" id="Слой_1" xmlns="http://www.w3.org/2000/svg" xmlns:xlink="http://www.w3.org/1999/xlink" x="0px" y="0px"
	 viewBox="0 0 27.1 27.3" style="enable-background:new 0 0 27.1 27.3;" xml:space="preserve">
<style type="text/css">
	.st0{fill:none;stroke:#FFFFFF;stroke-width:0.7087;stroke-linecap:round;stroke-linejoin:round;}
	.st1{fill:none;stroke:#FFFFFF;stroke-width:1.5;stroke-linecap:round;stroke-linejoin:round;}
</style>
<g>
	<path class="st0" d="M13.6,25.6c6.6,0,12-5.4,12-12s-5.4-12-12-12s-12,5.4-12,12S7,25.6,13.6,25.6z"/>
</g>
<g>
	<path class="st1" d="M15.2,11.8V9 M15.2,11.8v1.6l0,0 M15.2,11.8c0,0.7,0,1.2,0,1.7 M15.2,13.5c0,0.5,0.1,0.9,0.2,1.3
		c0.3,0.6,0.7,1.2,1.3,1.5c0.5,0.3,1.2,0.3,2.5,0.3h1.2c0.1,0,0.2,0,0.2,0c1-0.1,1.5-1.3,1-2.2L21.5,14l0,0l-0.1-0.1
		c-0.6-1.1-1.8-1.5-2.9-1.1h-0.1 M15.2,13.5L15.2,13.5c0,0.7,0,1.2,0,1.6 M15.2,15c0,0.5-0.1,0.8-0.2,1.1c-0.3,0.7-0.8,1.3-1.4,1.6
		C13.1,18,12.5,18,11.3,18 M15.2,15L12,11.2 M8.3,9v6c0,0.8-0.3,1.6-0.9,2.1S6.1,18,5.3,18"/>
</g>
</svg>
