<?xml version="1.0" encoding="utf-8"?>
<!-- Generator: Adobe Illustrator 26.0.0, SVG Export Plug-In . SVG Version: 6.00 Build 0)  -->
<svg version="1.1" id="Слой_1" xmlns="http://www.w3.org/2000/svg" xmlns:xlink="http://www.w3.org/1999/xlink" x="0px" y="0px"
	 viewBox="0 0 27.1 27.3" style="enable-background:new 0 0 27.1 27.3;" xml:space="preserve">
<style type="text/css">
	.st0{fill:none;stroke:#FFFFFF;stroke-width:0.7087;stroke-linecap:round;stroke-linejoin:round;}
	.st1{fill:none;stroke:#FFFFFF;stroke-width:1.5;stroke-linecap:round;stroke-linejoin:round;}
</style>
<g>
	<path class="st0" d="M13.6,25.6c6.6,0,12-5.4,12-12s-5.4-12-12-12s-12,5.4-12,12S7,25.6,13.6,25.6z"/>
	<path class="st1" d="M19.3,19.3C11,19.7,7.5,14,7.9,11.7c0.4-2.2,2.4-3.6,4.6-3.3c0.5,0.1,1,0.2,1.4,0.6c1.9,1.9,1.6,3.8,1.8,5.1
		c0.6,3,4.3,4.8,4.3,4.8c0,0.1-0.1,0.2-0.2,0.3C19.5,19.2,19.4,19.2,19.3,19.3"/>
</g>
<path class="st1" d="M9,6.8C8.9,7.6,9,8.3,9.5,9"/>
</svg>
