<?xml version="1.0" encoding="utf-8"?>
<!-- Generator: Adobe Illustrator 26.0.0, SVG Export Plug-In . SVG Version: 6.00 Build 0)  -->
<svg version="1.1" id="Слой_1" xmlns="http://www.w3.org/2000/svg" xmlns:xlink="http://www.w3.org/1999/xlink" x="0px" y="0px"
	 viewBox="0 0 27.1 27.3" style="enable-background:new 0 0 27.1 27.3;" xml:space="preserve">
<style type="text/css">
	.st0{fill:none;stroke:#FFFFFF;stroke-width:0.7087;stroke-linecap:round;stroke-linejoin:round;}
	.st1{fill:none;stroke:#FFFFFF;stroke-width:1.5;stroke-linecap:round;stroke-linejoin:round;}
</style>
<g>
	<path class="st0" d="M13.6,25.6c6.6,0,12-5.4,12-12s-5.4-12-12-12s-12,5.4-12,12S7,25.6,13.6,25.6z"/>
</g>
<g>
	<path class="st1" d="M20,17c0,0.1,0,0.2,0,0.3c0,0.1,0,0.2-0.1,0.2c0,0.1-0.1,0.1-0.2,0.2c-0.1,0-0.2,0.1-0.2,0.1
		c-0.3,0-0.6,0.1-1,0.1c-0.7,0.1-1.3,0.6-1.5,1.3c-0.1,0.4-0.3,0.8-0.4,1.1c0,0.1-0.1,0.2-0.1,0.2c-0.1,0.1-0.1,0.1-0.2,0.1
		s-0.2,0-0.3,0c-0.1,0-0.2,0-0.2-0.1c-0.6-0.4-1.2-0.8-1.8-1.1c-0.1-0.1-0.2-0.1-0.3-0.1s-0.2,0-0.3,0.1c-0.7,0.5-1.4,0.9-1.8,1.1
		c-0.1,0-0.2,0.1-0.2,0.1c-0.1,0-0.2,0-0.3,0s-0.2-0.1-0.2-0.1s-0.1-0.1-0.1-0.2c-0.2-0.5-0.4-1.1-0.6-1.9c0-0.1-0.1-0.2-0.2-0.3
		S9.5,18,9.4,18c-0.7-0.1-1.3-0.2-1.8-0.2c-0.1,0-0.2,0-0.2-0.1c-0.1,0-0.1-0.1-0.2-0.2c0-0.1-0.1-0.2-0.1-0.2c0-0.1,0-0.2,0-0.3
		c0.3-0.5,0.5-1.2,0.9-2c0-0.1,0.1-0.2,0-0.3c0-0.1-0.1-0.2-0.2-0.3C7.4,14,7,13.5,6.6,13.1C6.5,13,6.5,13,6.5,12.9
		c0-0.1,0-0.2,0-0.3s0.1-0.2,0.1-0.2c0.1-0.1,0.1-0.1,0.2-0.2c0.4-0.2,0.9-0.5,1.4-0.8c0.1-0.1,0.2-0.1,0.3-0.2
		c0.1-0.1,0.1-0.2,0.1-0.3c0-0.7-0.1-1.4-0.1-2.1c0-0.1,0-0.2,0.1-0.3c0-0.1,0.1-0.2,0.2-0.2C8.9,8.2,8.9,8.2,9,8.2
		c0.1,0,0.2,0,0.3,0c0.3,0.1,0.8,0.2,1.3,0.3c0.4,0.1,0.7,0.1,1.1-0.1c0.3-0.1,0.6-0.3,0.9-0.6c0.3-0.4,0.5-0.7,0.8-1
		c0.1-0.1,0.1-0.1,0.2-0.2c0.1,0,0.2-0.1,0.3-0.1s0.2,0,0.3,0.1c0.1,0,0.2,0.1,0.2,0.2c0.2,0.3,0.5,0.6,0.8,1
		c0.4,0.6,1.2,0.8,1.9,0.7c0.5-0.1,0.9-0.2,1.3-0.3c0.1,0,0.2,0,0.3,0c0.1,0,0.2,0.1,0.2,0.1C19,8.4,19,8.4,19.1,8.5
		c0,0.1,0.1,0.2,0.1,0.3c0,0.3,0,0.8,0,1.3c0,0.4,0.1,0.7,0.2,1c0.2,0.3,0.4,0.6,0.8,0.7c0.3,0.1,0.5,0.3,0.7,0.4
		c0.3,0.2,0.4,0.6,0.2,0.9c-0.3,0.3-0.7,0.8-1.2,1.3c-0.1,0.1-0.1,0.2-0.2,0.3s0,0.2,0,0.3C19.5,15.8,19.8,16.5,20,17L20,17z"/>
</g>
</svg>
