<svg width="24" height="24" viewBox="0 0 24 24" fill="none" xmlns="http://www.w3.org/2000/svg">
<path d="M14 5C16.0559 5 17.7486 6.55113 17.9736 8.54688L20.6025 7.40918C21.2627 7.12332 21.9997 7.60687 22 8.32617V15.6738C21.9997 16.3931 21.2627 16.8767 20.6025 16.5908L17.9736 15.4521C17.749 17.4484 16.0562 19 14 19H5C2.79086 19 1 17.2091 1 15V9C1 6.79086 2.79086 5 5 5H14ZM5 6C3.34315 6 2 7.34315 2 9V15C2 16.6569 3.34315 18 5 18H14C15.5411 18 16.8111 16.8363 16.9795 15.3398L17.1309 13.9971L18.3711 14.5342L21 15.6729V8.32715L18.3711 9.46484L17.1309 10.001L16.9795 8.65918C16.8108 7.16309 15.5409 6 14 6H5Z" fill="white"/>
</svg>
