<?xml version="1.0" encoding="utf-8"?>
<!-- Generator: Adobe Illustrator 26.0.0, SVG Export Plug-In . SVG Version: 6.00 Build 0)  -->
<svg version="1.1" id="Слой_1" xmlns="http://www.w3.org/2000/svg" xmlns:xlink="http://www.w3.org/1999/xlink" x="0px" y="0px"
	 viewBox="0 0 27.1 27.3" style="enable-background:new 0 0 27.1 27.3;" xml:space="preserve">
<style type="text/css">
	.st0{fill:none;stroke:#FFFFFF;stroke-width:0.7087;stroke-linecap:round;stroke-linejoin:round;}
	.st1{fill:none;stroke:#FFFFFF;stroke-width:1.5;stroke-linecap:round;stroke-linejoin:round;}
</style>
<g>
	<path class="st0" d="M13.6,25.6c6.6,0,12-5.4,12-12s-5.4-12-12-12s-12,5.4-12,12S7,25.6,13.6,25.6z"/>
	<path class="st1" d="M20.3,8.8l0.3,3.4c0.2,2.2-1.4,4.2-3.7,4.4c-2.2,0.2-4.1-1.4-4.4-3.6c0-0.5,0-1,0.2-1.5s0.4-1,0.7-1.4
		s0.7-0.7,1.2-1c0.5-0.2,1-0.4,1.5-0.4l3.6-0.4c0.1,0,0.2,0,0.3,0.1C20.2,8.6,20.2,8.7,20.3,8.8"/>
	<path class="st1" d="M16.4,13c-1.9,2.1-3.9,7.2-3.9,7.2S9.7,13,7,11.3"/>
</g>
</svg>
